<?xml version="1.0" standalone="no"?>
<!DOCTYPE svg PUBLIC "-//W3C//DTD SVG 20010904//EN"
 "http://www.w3.org/TR/2001/REC-SVG-20010904/DTD/svg10.dtd">
<svg version="1.0" xmlns="http://www.w3.org/2000/svg"
 width="30" height="30" viewBox="0 0 1382.000000 1400.000000"
 preserveAspectRatio="xMidYMid meet">

<g transform="translate(0.000000,1400.000000) scale(0.100000,-0.100000)"
fill="#a578e1" stroke="none">
<path d="M6430 13540 c-14 -4 -54 -9 -90 -9 -36 -1 -123 -8 -195 -17 -71 -8
-168 -19 -215 -24 -47 -6 -114 -17 -150 -25 -36 -9 -99 -20 -140 -25 -41 -5
-97 -14 -125 -20 -27 -6 -74 -16 -104 -21 -29 -5 -61 -14 -71 -19 -9 -5 -119
-36 -244 -69 -125 -34 -273 -76 -329 -95 -105 -35 -325 -120 -355 -136 -9 -5
-48 -22 -87 -38 -38 -16 -116 -48 -173 -72 -112 -46 -306 -143 -442 -219 -47
-27 -139 -79 -205 -116 -152 -86 -318 -192 -415 -265 -41 -31 -86 -63 -100
-70 -60 -32 -272 -206 -525 -431 -231 -205 -574 -567 -695 -732 -19 -27 -62
-83 -96 -125 -33 -42 -80 -105 -103 -139 -24 -35 -47 -65 -52 -69 -5 -3 -26
-31 -47 -62 -21 -31 -72 -107 -114 -167 -41 -61 -87 -134 -102 -163 -15 -29
-42 -77 -61 -107 -19 -30 -35 -61 -35 -69 0 -8 -11 -27 -24 -43 -20 -24 -189
-356 -265 -523 -72 -157 -96 -212 -116 -270 -13 -36 -44 -126 -70 -200 -71
-203 -205 -682 -225 -805 -4 -27 -15 -75 -24 -105 -9 -30 -16 -71 -16 -91 0
-20 -6 -54 -14 -76 -8 -22 -19 -89 -25 -149 -6 -60 -13 -127 -16 -149 -45
-375 -46 -399 -41 -835 3 -312 9 -462 21 -565 9 -77 19 -164 22 -193 4 -43 9
-53 26 -57 12 -3 1325 -4 2917 -3 l2895 3 80 32 c102 40 242 119 255 143 6 10
23 27 39 36 15 9 35 28 44 43 9 14 29 40 45 56 70 74 137 237 157 380 7 55 21
149 30 210 9 60 14 125 11 145 -4 26 -3 31 5 20 8 -11 9 -5 5 25 -3 23 -2 34
3 27 11 -18 24 47 15 74 -4 14 -3 15 4 5 7 -9 13 1 22 40 17 76 33 119 43 119
4 0 5 10 2 21 -5 16 -4 19 6 14 9 -6 11 -2 7 13 -4 12 -2 20 2 17 5 -3 14 12
21 32 6 21 28 72 47 113 20 41 36 81 35 87 0 7 4 10 10 6 6 -4 8 0 4 11 -4 10
-3 15 3 11 6 -3 10 -2 10 3 0 6 16 33 35 62 19 29 32 57 28 63 -3 6 -1 7 6 3
7 -5 18 5 29 25 9 18 29 46 44 62 15 16 30 38 33 48 4 10 10 18 14 16 4 -1 34
28 67 65 52 59 185 180 255 231 13 10 18 15 10 11 -9 -5 -12 -3 -7 5 4 6 11 9
15 6 5 -2 46 22 91 55 45 33 91 62 101 65 10 4 19 11 19 16 0 6 5 7 10 4 6 -3
10 -1 10 5 0 6 5 8 10 5 6 -3 10 -1 10 5 0 6 3 9 8 7 4 -3 25 4 47 15 78 39
292 115 395 141 225 57 143 55 2520 62 1207 3 2203 9 2213 11 21 7 18 28 -18
139 -13 39 -36 111 -51 160 -30 97 -48 144 -126 330 -27 66 -66 158 -85 205
-34 80 -156 324 -273 545 -47 87 -109 190 -265 439 -42 67 -148 214 -249 344
-117 151 -473 550 -626 700 -85 85 -220 206 -300 270 -80 65 -149 122 -155
128 -21 23 -155 133 -175 144 -11 6 -75 52 -141 101 -67 50 -146 106 -178 125
-31 19 -114 71 -186 115 -71 44 -164 98 -205 120 -41 22 -100 53 -130 69 -30
17 -64 33 -75 37 -11 3 -31 14 -45 24 -33 25 -353 173 -455 211 -44 17 -84 34
-89 39 -6 5 -16 9 -24 9 -7 0 -61 21 -120 47 -59 25 -120 50 -137 54 -125 33
-266 73 -350 99 -89 28 -143 42 -370 95 -33 8 -80 19 -105 25 -25 7 -67 16
-95 20 -27 5 -90 16 -140 25 -49 9 -130 20 -180 25 -49 5 -115 14 -145 20
-125 25 -1088 50 -1150 30z m575 -4735 c-27 -13 -79 -36 -115 -51 -35 -15 -70
-33 -77 -40 -7 -6 -29 -22 -50 -35 -149 -91 -341 -262 -453 -404 -42 -53 -97
-142 -136 -217 l-65 -128 -1052 -2 -1052 -3 -55 -34 c-30 -19 -61 -41 -68 -50
-55 -69 -76 -141 -61 -215 17 -85 43 -129 101 -173 41 -31 68 -42 119 -51 47
-9 336 -12 999 -12 l933 0 -7 -137 c-8 -152 3 -308 34 -490 11 -65 20 -121 20
-126 0 -7 -2601 -4 -2627 3 -7 2 -10 7 -7 12 5 7 -10 12 -29 9 -5 -1 -6 3 -2
9 6 9 -8 14 -28 11 -5 -1 -6 3 -2 9 6 9 -8 14 -28 11 -5 -1 -6 3 -2 9 5 9 -6
14 -26 12 -4 -1 -22 13 -41 31 -19 18 -25 25 -14 17 41 -31 51 -34 16 -6 -62
51 -211 210 -232 248 -12 20 -26 34 -31 31 -6 -3 -7 -1 -4 4 4 6 -10 42 -31
79 -49 90 -92 187 -92 208 0 10 -3 15 -7 13 -5 -3 -9 5 -9 16 -1 12 -10 58
-19 102 -14 60 -19 129 -20 278 -2 113 1 193 6 185 6 -9 9 -5 9 14 0 15 14 70
30 122 17 51 29 100 27 107 -2 8 -2 10 1 6 5 -9 46 73 44 86 -1 4 2 7 6 7 4 0
14 16 20 35 7 19 33 63 57 98 24 36 41 68 37 72 -4 5 -2 5 4 2 10 -6 23 10 28
33 4 15 32 50 40 50 5 0 -1 -12 -15 -27 -13 -14 22 19 79 75 56 56 107 102
113 102 5 0 7 5 4 10 -4 6 -3 9 2 8 4 -1 19 5 33 14 14 9 52 32 85 52 l60 36
1800 -1 1800 0 -50 -24z m-148 -1647 c-3 -8 -6 -5 -6 6 -1 11 2 17 5 13 3 -3
4 -12 1 -19z m-10 -80 c-3 -7 -5 -2 -5 12 0 14 2 19 5 13 2 -7 2 -19 0 -25z
m-10 -65 c-3 -10 -5 -2 -5 17 0 19 2 27 5 18 2 -10 2 -26 0 -35z m-3769 -109
c-4 -3 -12 5 -18 18 -12 22 -12 22 6 6 10 -10 15 -20 12 -24z"/>
<path d="M8499 7915 c-14 -8 -60 -23 -101 -34 -77 -21 -198 -83 -241 -123 -13
-13 -51 -44 -84 -70 -72 -56 -145 -150 -208 -269 -25 -49 -50 -91 -55 -94 -17
-11 -61 -237 -79 -415 -11 -102 -31 -234 -46 -295 -27 -118 -105 -327 -141
-380 -12 -18 -41 -65 -64 -106 -24 -41 -47 -75 -52 -77 -4 -2 -8 -8 -8 -13 0
-16 -78 -118 -156 -204 -84 -92 -242 -228 -311 -266 -27 -15 -86 -49 -133 -76
-125 -73 -231 -117 -357 -149 -61 -16 -109 -32 -106 -37 3 -5 -4 -6 -15 -3
-12 4 -61 0 -109 -8 -190 -32 -436 -36 -3043 -41 -1438 -4 -2617 -8 -2619 -11
-8 -8 88 -315 102 -325 4 -3 5 -13 1 -22 -3 -10 -1 -17 6 -17 6 0 9 -4 6 -9
-6 -8 42 -129 176 -446 116 -274 297 -612 522 -975 45 -73 321 -442 399 -535
246 -290 462 -515 693 -720 262 -234 397 -347 484 -405 52 -35 149 -104 215
-153 66 -49 131 -94 145 -100 14 -6 36 -18 50 -27 14 -10 50 -30 80 -47 51
-28 122 -69 205 -118 139 -82 492 -260 579 -291 22 -8 44 -18 50 -22 6 -5 52
-23 101 -41 50 -18 110 -41 135 -51 102 -41 410 -143 515 -170 17 -4 44 -13
60 -20 28 -11 163 -43 315 -74 36 -7 112 -25 170 -39 160 -39 611 -95 875
-108 478 -24 982 0 1400 67 192 31 476 88 531 107 21 8 59 18 84 22 25 4 54
12 64 17 11 6 61 21 113 34 149 38 633 203 659 225 8 6 14 9 14 5 0 -3 26 8
59 24 32 17 64 30 70 30 7 0 29 9 49 20 20 11 71 34 112 51 72 30 242 120 380
200 36 21 97 55 135 75 83 43 95 50 245 151 429 287 695 500 1013 813 397 388
817 913 1025 1279 36 64 91 159 122 211 65 106 189 358 245 494 34 83 62 144
86 189 30 55 200 536 228 642 5 22 28 99 51 170 22 72 40 142 40 156 0 15 7
46 15 70 9 24 18 71 22 104 3 33 10 66 15 72 6 7 8 20 4 28 -3 8 -1 15 5 15 7
0 9 10 5 26 -4 15 -3 23 2 20 12 -7 22 52 22 136 0 43 4 68 12 70 8 3 12 27
13 66 0 34 4 62 8 62 5 0 6 18 2 40 -4 23 -3 40 3 40 5 0 9 37 9 83 0 45 5 94
11 109 21 52 36 589 23 847 -7 130 -16 261 -21 291 -5 30 -13 112 -18 182 -4
71 -12 132 -17 137 -6 5 -1047 11 -2390 15 -2060 5 -2384 4 -2406 -9z m2487
-992 c-4 -455 -12 -602 -34 -653 -5 -14 -18 -54 -27 -90 -16 -62 -32 -104 -86
-230 -49 -111 -221 -312 -357 -414 -104 -79 -240 -154 -336 -185 -139 -46
-248 -71 -313 -72 -40 0 -52 -3 -38 -9 11 -4 -371 -7 -850 -6 l-870 1 -75 24
c-79 24 -204 80 -182 80 7 1 29 -7 50 -18 40 -20 253 -83 260 -77 3 4 -20 11
-168 53 -30 9 -72 24 -94 35 -21 11 -47 18 -57 15 -10 -3 -17 0 -16 7 1 6 -8
11 -20 10 -12 0 -19 4 -16 9 4 6 -1 8 -11 4 -11 -5 -15 -3 -10 5 5 8 2 9 -9 5
-10 -4 -16 -2 -14 5 1 6 -4 13 -12 16 -8 3 -11 0 -7 -7 11 -17 -1 -13 -50 15
-47 27 -67 48 -37 37 10 -3 15 -2 10 2 -4 5 -15 9 -25 10 -9 0 -17 4 -17 9 0
4 -13 15 -29 23 l-30 16 76 71 c77 72 138 145 138 164 0 6 6 15 13 19 6 4 19
19 27 33 8 14 36 60 62 104 26 43 45 82 43 86 -3 5 -1 10 4 12 14 5 59 164 75
267 9 52 17 95 19 97 2 2 32 -20 68 -50 66 -55 145 -99 259 -145 l65 -26 858
-3 857 -3 0 230 0 231 -776 2 -776 3 77 95 c43 52 94 115 115 140 79 94 119
147 114 153 -3 3 0 8 7 13 8 5 10 3 5 -7 -11 -21 9 4 78 94 32 42 63 77 68 77
5 0 7 4 4 9 -3 4 8 20 25 35 16 15 27 31 24 35 -2 5 3 15 13 22 16 13 16 12 3
-6 -8 -11 2 -2 22 20 19 22 33 44 29 49 -3 5 0 6 5 3 6 -4 13 0 17 8 5 13 119
15 931 15 l926 0 -5 -467z m-4459 -1579 c-3 -3 -12 -4 -19 -1 -8 3 -5 6 6 6
11 1 17 -2 13 -5z m-92 -24 c-3 -5 -16 -10 -28 -9 -20 1 -20 2 3 9 14 4 26 8
28 9 2 1 0 -3 -3 -9z m-118 -26 c-3 -3 -12 -4 -19 -1 -8 3 -5 6 6 6 11 1 17
-2 13 -5z m-54 -11 c-7 -2 -19 -2 -25 0 -7 3 -2 5 12 5 14 0 19 -2 13 -5z
m-56 -9 c-3 -3 -12 -4 -19 -1 -8 3 -5 6 6 6 11 1 17 -2 13 -5z m-80 -11 c-20
-2 -52 -2 -70 0 -17 2 0 4 38 4 39 0 53 -2 32 -4z"/>
<path d="M7652 5454 c10 -10 20 -15 24 -12 3 4 -5 12 -18 18 -22 12 -22 12 -6
-6z"/>
</g>
</svg>
